<svg width="20" height="14" viewBox="0 0 20 14" fill="none" xmlns="http://www.w3.org/2000/svg">
<path d="M10.0002 0.75C5.8335 0.75 2.27516 3.34167 0.833496 7C2.27516 10.6583 5.8335 13.25 10.0002 13.25C14.1668 13.25 17.7252 10.6583 19.1668 7C17.7252 3.34167 14.1668 0.75 10.0002 0.75ZM10.0002 11.1667C7.70016 11.1667 5.8335 9.3 5.8335 7C5.8335 4.7 7.70016 2.83333 10.0002 2.83333C12.3002 2.83333 14.1668 4.7 14.1668 7C14.1668 9.3 12.3002 11.1667 10.0002 11.1667ZM10.0002 4.5C8.61683 4.5 7.50016 5.61667 7.50016 7C7.50016 8.38333 8.61683 9.5 10.0002 9.5C11.3835 9.5 12.5002 8.38333 12.5002 7C12.5002 5.61667 11.3835 4.5 10.0002 4.5Z" fill="#A0AFBE"/>
</svg>
