<svg width="18" height="15" viewBox="0 0 18 15" fill="none" xmlns="http://www.w3.org/2000/svg">
<path d="M7.33329 6.89583C6.41663 6.89583 5.66663 6.60416 5.08329 6.02083C4.49996 5.43749 4.20829 4.68749 4.20829 3.77083C4.20829 2.85416 4.49996 2.10416 5.08329 1.52083C5.66663 0.937495 6.41663 0.645828 7.33329 0.645828C8.24996 0.645828 8.99996 0.937495 9.58329 1.52083C10.1666 2.10416 10.4583 2.85416 10.4583 3.77083C10.4583 4.68749 10.1666 5.43749 9.58329 6.02083C8.99996 6.60416 8.24996 6.89583 7.33329 6.89583ZM0.666626 13.5833V11.625C0.666626 11.1389 0.788154 10.7014 1.03121 10.3125C1.27426 9.92361 1.62496 9.62499 2.08329 9.41666C3.08329 8.97222 4.01038 8.65277 4.86454 8.45833C5.71871 8.26388 6.54163 8.16666 7.33329 8.16666C7.40274 8.16666 7.4826 8.16666 7.57288 8.16666C7.66315 8.16666 7.74301 8.16666 7.81246 8.16666C7.72913 8.36111 7.66663 8.55208 7.62496 8.73958C7.58329 8.92708 7.54857 9.15277 7.52079 9.41666H7.33329C6.52774 9.41666 5.73954 9.50347 4.96871 9.67708C4.19788 9.85069 3.40274 10.1389 2.58329 10.5417C2.36107 10.6528 2.1944 10.809 2.08329 11.0104C1.97218 11.2118 1.91663 11.4167 1.91663 11.625V12.3333H7.52079C7.59024 12.5833 7.67357 12.809 7.77079 13.0104C7.86801 13.2118 7.98607 13.4028 8.12496 13.5833H0.666626ZM12.8958 14.5L12.6875 13.125C12.4513 13.0556 12.2118 12.9549 11.9687 12.8229C11.7257 12.691 11.5208 12.5417 11.3541 12.375L10.2083 12.625L9.68746 11.75L10.6666 10.8333C10.6388 10.7083 10.625 10.5347 10.625 10.3125C10.625 10.0903 10.6388 9.91666 10.6666 9.79166L9.68746 8.87499L10.2083 7.99999L11.3541 8.24999C11.5208 8.08333 11.7257 7.93402 11.9687 7.80208C12.2118 7.67013 12.4513 7.56944 12.6875 7.5L12.8958 6.12499H14.0208L14.2291 7.5C14.4652 7.56944 14.7048 7.67013 14.9479 7.80208C15.1909 7.93402 15.3958 8.08333 15.5625 8.24999L16.7083 7.99999L17.2291 8.87499L16.25 9.79166C16.2777 9.91666 16.2916 10.0903 16.2916 10.3125C16.2916 10.5347 16.2777 10.7083 16.25 10.8333L17.2291 11.75L16.7083 12.625L15.5625 12.375C15.3958 12.5417 15.1909 12.691 14.9479 12.8229C14.7048 12.9549 14.4652 13.0556 14.2291 13.125L14.0208 14.5H12.8958ZM13.4583 11.9792C13.9583 11.9792 14.3611 11.8264 14.6666 11.5208C14.9722 11.2153 15.125 10.8125 15.125 10.3125C15.125 9.8125 14.9722 9.40972 14.6666 9.10416C14.3611 8.79861 13.9583 8.64583 13.4583 8.64583C12.9583 8.64583 12.5555 8.79861 12.25 9.10416C11.9444 9.40972 11.7916 9.8125 11.7916 10.3125C11.7916 10.8125 11.9444 11.2153 12.25 11.5208C12.5555 11.8264 12.9583 11.9792 13.4583 11.9792ZM7.33329 5.64583C7.87496 5.64583 8.32288 5.46874 8.67704 5.11458C9.03121 4.76041 9.20829 4.31249 9.20829 3.77083C9.20829 3.22916 9.03121 2.78124 8.67704 2.42708C8.32288 2.07291 7.87496 1.89583 7.33329 1.89583C6.79163 1.89583 6.34371 2.07291 5.98954 2.42708C5.63538 2.78124 5.45829 3.22916 5.45829 3.77083C5.45829 4.31249 5.63538 4.76041 5.98954 5.11458C6.34371 5.46874 6.79163 5.64583 7.33329 5.64583Z" fill="#A0AFBE"/>
</svg>
