<svg width="18" height="14" viewBox="0 0 18 14" fill="none" xmlns="http://www.w3.org/2000/svg">
<path d="M11.4792 7.54168C11.8958 7.54168 12.2535 7.39237 12.5521 7.09376C12.8507 6.79515 13 6.43751 13 6.02084C13 5.60418 12.8507 5.24654 12.5521 4.94793C12.2535 4.64932 11.8958 4.50001 11.4792 4.50001C11.0625 4.50001 10.7049 4.64932 10.4063 4.94793C10.1076 5.24654 9.95833 5.60418 9.95833 6.02084C9.95833 6.43751 10.1076 6.79515 10.4063 7.09376C10.7049 7.39237 11.0625 7.54168 11.4792 7.54168ZM8.14583 11.1667H14.8125V10.7708C14.8125 10.1875 14.5174 9.73612 13.9271 9.41668C13.3368 9.09723 12.5208 8.93751 11.4792 8.93751C10.4375 8.93751 9.62153 9.09723 9.03125 9.41668C8.44097 9.73612 8.14583 10.1875 8.14583 10.7708V11.1667ZM1.9375 13.6667C1.60417 13.6667 1.3125 13.5382 1.0625 13.2813C0.8125 13.0243 0.6875 12.7361 0.6875 12.4167V1.58334C0.6875 1.2639 0.8125 0.975705 1.0625 0.71876C1.3125 0.461816 1.60417 0.333344 1.9375 0.333344H7.77083L9.02083 1.58334H16.1042C16.4236 1.58334 16.7118 1.71182 16.9688 1.96876C17.2257 2.2257 17.3542 2.5139 17.3542 2.83334V12.4167C17.3542 12.7361 17.2257 13.0243 16.9688 13.2813C16.7118 13.5382 16.4236 13.6667 16.1042 13.6667H1.9375ZM1.9375 1.58334V12.4167H16.1042V2.83334H8.5L7.25 1.58334H1.9375ZM1.9375 1.58334V2.83334V12.4167V1.58334Z" fill="#A0AFBE"/>
</svg>
