<svg width="18" height="18" viewBox="0 0 18 18" fill="none" xmlns="http://www.w3.org/2000/svg">
<path d="M7.08342 17.3332L6.66675 14.7082C6.40286 14.6109 6.12508 14.479 5.83342 14.3123C5.54175 14.1457 5.2848 13.9721 5.06258 13.7915L2.60425 14.9165L0.666748 11.4998L2.91675 9.854C2.88897 9.729 2.87161 9.58664 2.86466 9.42692C2.85772 9.2672 2.85425 9.12484 2.85425 8.99984C2.85425 8.87484 2.85772 8.73248 2.86466 8.57275C2.87161 8.41303 2.88897 8.27067 2.91675 8.14567L0.666748 6.49984L2.60425 3.08317L5.06258 4.20817C5.2848 4.02762 5.54175 3.854 5.83342 3.68734C6.12508 3.52067 6.40286 3.39567 6.66675 3.31234L7.08342 0.666504H10.9167L11.3334 3.2915C11.5973 3.38873 11.8786 3.5172 12.1772 3.67692C12.4758 3.83664 12.7292 4.01373 12.9376 4.20817L15.3959 3.08317L17.3334 6.49984L15.0834 8.104C15.1112 8.24289 15.1286 8.3922 15.1355 8.55192C15.1424 8.71164 15.1459 8.86095 15.1459 8.99984C15.1459 9.13873 15.1424 9.28456 15.1355 9.43734C15.1286 9.59012 15.1112 9.73595 15.0834 9.87484L17.3334 11.4998L15.3959 14.9165L12.9376 13.7915C12.7154 13.9721 12.4619 14.1491 12.1772 14.3228C11.8924 14.4964 11.6112 14.6248 11.3334 14.7082L10.9167 17.3332H7.08342ZM9.00008 11.7082C9.75008 11.7082 10.389 11.4443 10.9167 10.9165C11.4445 10.3887 11.7084 9.74984 11.7084 8.99984C11.7084 8.24984 11.4445 7.61095 10.9167 7.08317C10.389 6.55539 9.75008 6.2915 9.00008 6.2915C8.25008 6.2915 7.61119 6.55539 7.08342 7.08317C6.55564 7.61095 6.29175 8.24984 6.29175 8.99984C6.29175 9.74984 6.55564 10.3887 7.08342 10.9165C7.61119 11.4443 8.25008 11.7082 9.00008 11.7082ZM9.00008 10.4582C8.5973 10.4582 8.25355 10.3158 7.96883 10.0311C7.68411 9.74637 7.54175 9.40262 7.54175 8.99984C7.54175 8.59706 7.68411 8.25331 7.96883 7.96859C8.25355 7.68387 8.5973 7.5415 9.00008 7.5415C9.40286 7.5415 9.74661 7.68387 10.0313 7.96859C10.3161 8.25331 10.4584 8.59706 10.4584 8.99984C10.4584 9.40262 10.3161 9.74637 10.0313 10.0311C9.74661 10.3158 9.40286 10.4582 9.00008 10.4582ZM8.08341 16.0832H9.91675L10.2084 13.7498C10.6667 13.6387 11.1008 13.4651 11.5105 13.229C11.9202 12.9929 12.2917 12.7082 12.6251 12.3748L14.8334 13.3332L15.6667 11.8332L13.7084 10.3957C13.764 10.1596 13.8091 9.92692 13.8438 9.69775C13.8786 9.46859 13.8959 9.23595 13.8959 8.99984C13.8959 8.76373 13.882 8.53109 13.8542 8.30192C13.8265 8.07275 13.7779 7.84012 13.7084 7.604L15.6667 6.1665L14.8334 4.6665L12.6251 5.62484C12.3056 5.26373 11.9445 4.96164 11.5417 4.71859C11.139 4.47553 10.6945 4.31928 10.2084 4.24984L9.91675 1.9165H8.08341L7.79175 4.24984C7.31953 4.34706 6.87855 4.51373 6.46883 4.74984C6.05911 4.98595 5.69453 5.27762 5.37508 5.62484L3.16675 4.6665L2.33341 6.1665L4.29175 7.604C4.23619 7.84012 4.19105 8.07275 4.15633 8.30192C4.12161 8.53109 4.10425 8.76373 4.10425 8.99984C4.10425 9.23595 4.12161 9.46859 4.15633 9.69775C4.19105 9.92692 4.23619 10.1596 4.29175 10.3957L2.33341 11.8332L3.16675 13.3332L5.37508 12.3748C5.70842 12.7082 6.07994 12.9929 6.48967 13.229C6.89939 13.4651 7.33342 13.6387 7.79175 13.7498L8.08341 16.0832Z" fill="#A0AFBE"/>
</svg>
