<svg width="24" height="24" viewBox="0 0 24 24" fill="none" xmlns="http://www.w3.org/2000/svg">
<path d="M12 0C5.376 0 0 5.376 0 12C0 18.624 5.376 24 12 24C18.624 24 24 18.624 24 12C24 5.376 18.624 0 12 0Z" fill="#0041ED"/>
<path d="M9.99994 14.5879L7.306 11.894L7.19994 11.7879L7.09387 11.894L6.16054 12.8273L6.05447 12.9334L6.16054 13.0395L9.89387 16.7728L9.99994 16.8789L10.106 16.7728L18.106 8.7728L18.2121 8.66673L18.106 8.56067L17.1727 7.62733L17.0666 7.52127L16.9605 7.62733L9.99994 14.5879Z" fill="white" stroke="white" stroke-width="0.3"/>
</svg>
